<svg width="26" height="23" viewBox="0 0 26 23" fill="none" xmlns="http://www.w3.org/2000/svg">
<path d="M24.1427 5.85285V1.91661C24.1427 1.40829 23.9471 0.920796 23.5988 0.561362C23.2505 0.201928 22.7781 0 22.2856 0H1.85713C1.36459 0 0.892221 0.201928 0.543941 0.561362C0.195662 0.920796 0 1.40829 0 1.91661V17.2495C0 17.7578 0.195662 18.2453 0.543941 18.6047C0.892221 18.9642 1.36459 19.1661 1.85713 19.1661H14.8571V22.041C14.8569 22.2044 14.8973 22.3652 14.9744 22.508C15.0514 22.6508 15.1626 22.7708 15.2973 22.8568C15.432 22.9427 15.5857 22.9917 15.7439 22.999C15.9021 23.0064 16.0595 22.9718 16.2012 22.8987L19.4999 21.1953L22.7986 22.8987C22.9402 22.9718 23.0976 23.0064 23.2558 22.999C23.414 22.9917 23.5678 22.9427 23.7025 22.8568C23.8372 22.7708 23.9483 22.6508 24.0254 22.508C24.1024 22.3652 24.1428 22.2044 24.1427 22.041V15.2299C25.3331 13.9785 26 12.2949 26 10.5414C26 8.78775 25.3331 7.10421 24.1427 5.85285ZM12.0714 12.458H5.5714C5.32513 12.458 5.08894 12.357 4.9148 12.1773C4.74066 11.9976 4.64283 11.7538 4.64283 11.4997C4.64283 11.2455 4.74066 11.0017 4.9148 10.822C5.08894 10.6423 5.32513 10.5414 5.5714 10.5414H12.0714C12.3176 10.5414 12.5538 10.6423 12.728 10.822C12.9021 11.0017 12.9999 11.2455 12.9999 11.4997C12.9999 11.7538 12.9021 11.9976 12.728 12.1773C12.5538 12.357 12.3176 12.458 12.0714 12.458ZM12.0714 8.62474H5.5714C5.32513 8.62474 5.08894 8.52378 4.9148 8.34406C4.74066 8.16434 4.64283 7.9206 4.64283 7.66644C4.64283 7.41228 4.74066 7.16853 4.9148 6.98881C5.08894 6.8091 5.32513 6.70813 5.5714 6.70813H12.0714C12.3176 6.70813 12.5538 6.8091 12.728 6.98881C12.9021 7.16853 12.9999 7.41228 12.9999 7.66644C12.9999 7.9206 12.9021 8.16434 12.728 8.34406C12.5538 8.52378 12.3176 8.62474 12.0714 8.62474ZM22.2856 20.491L19.9154 19.2667C19.7864 19.2001 19.6441 19.1654 19.4999 19.1654C19.3556 19.1654 19.2134 19.2001 19.0844 19.2667L16.7142 20.491V16.6014C17.5847 17.0281 18.5362 17.2495 19.4999 17.2495C20.4635 17.2495 21.4151 17.0281 22.2856 16.6014V20.491ZM19.4999 15.3329C18.5816 15.3329 17.684 15.0519 16.9205 14.5254C16.157 13.9989 15.5619 13.2505 15.2105 12.375C14.8591 11.4995 14.7671 10.536 14.9463 9.60657C15.1254 8.67711 15.5676 7.82334 16.2169 7.15323C16.8662 6.48313 17.6935 6.02678 18.5941 5.8419C19.4947 5.65701 20.4283 5.7519 21.2766 6.11456C22.125 6.47722 22.8501 7.09136 23.3603 7.87932C23.8704 8.66729 24.1427 9.59368 24.1427 10.5414C24.1427 11.8121 23.6536 13.0309 22.7829 13.9295C21.9122 14.8281 20.7312 15.3329 19.4999 15.3329Z" fill="#1E78FF"/>
</svg>
