<svg width="600" height="79" viewBox="0 0 600 79" fill="none" xmlns="http://www.w3.org/2000/svg">
<path d="M109.618 6.65196V63.4147H97.6163V6.65196H109.618ZM131.077 38.8028V63.4147H119.27V20.8426H130.522V28.3537H131.021C131.964 25.8776 133.543 23.9192 135.761 22.4779C137.978 21.0182 140.667 20.2883 143.826 20.2883C146.783 20.2883 149.36 20.935 151.559 22.2285C153.758 23.5219 155.467 25.3696 156.687 27.7718C157.906 30.1552 158.516 33.0008 158.516 36.3084V63.4147H146.709V38.4147C146.727 35.8093 146.062 33.7769 144.713 32.3172C143.364 30.8389 141.507 30.0998 139.142 30.0998C137.553 30.0998 136.149 30.4418 134.929 31.1254C133.728 31.8091 132.786 32.8069 132.102 34.1186C131.437 35.412 131.095 36.9735 131.077 38.8028ZM190.466 20.8426V29.7118H164.828V20.8426H190.466ZM170.649 10.6431H182.456V50.3328C182.456 51.4228 182.622 52.2728 182.955 52.8825C183.287 53.4737 183.749 53.8896 184.34 54.1298C184.95 54.3701 185.652 54.4901 186.447 54.4901C187.001 54.4901 187.555 54.444 188.11 54.3515C188.664 54.2406 189.089 54.1574 189.385 54.102L191.242 62.8881C190.65 63.0728 189.819 63.2854 188.747 63.5257C187.676 63.7842 186.373 63.9413 184.839 63.9967C181.994 64.1076 179.499 63.7289 177.356 62.8603C175.231 61.992 173.577 60.643 172.395 58.8137C171.212 56.9845 170.63 54.675 170.649 51.8847V10.6431ZM217.101 64.2462C212.722 64.2462 208.952 63.3593 205.793 61.5854C202.651 59.7932 200.231 57.2618 198.531 53.9913C196.831 50.7023 195.981 46.8128 195.981 42.3228C195.981 37.9435 196.831 34.1003 198.531 30.7928C200.231 27.4852 202.624 24.9076 205.709 23.0599C208.814 21.2122 212.454 20.2883 216.63 20.2883C219.438 20.2883 222.053 20.741 224.473 21.6464C226.912 22.5333 229.037 23.873 230.848 25.6652C232.677 27.4576 234.1 29.7118 235.116 32.4281C236.133 35.1257 236.641 38.2854 236.641 41.9069V45.1498H200.693V37.8328H225.527C225.527 36.1328 225.157 34.6269 224.418 33.315C223.679 32.003 222.653 30.9776 221.341 30.2384C220.048 29.4808 218.542 29.102 216.824 29.102C215.031 29.102 213.442 29.5179 212.057 30.3493C210.689 31.1623 209.618 32.2618 208.841 33.6476C208.065 35.015 207.668 36.5393 207.65 38.2208V45.1774C207.65 47.284 208.038 49.104 208.814 50.6376C209.608 52.1713 210.726 53.3537 212.167 54.1852C213.609 55.0167 215.318 55.4325 217.295 55.4325C218.607 55.4325 219.808 55.2476 220.898 54.8781C221.988 54.5086 222.921 53.9542 223.697 53.2152C224.473 52.4762 225.065 51.5706 225.471 50.4989L236.391 51.2196C235.837 53.8435 234.701 56.1347 232.982 58.0932C231.282 60.0332 229.083 61.5484 226.386 62.6386C223.707 63.7103 220.612 64.2462 217.101 64.2462ZM256.154 6.65196V63.4147H244.346V6.65196H256.154ZM277.417 6.65196V63.4147H265.612V6.65196H277.417ZM286.876 63.4147V20.8426H298.683V63.4147H286.876ZM292.807 15.3548C291.051 15.3548 289.546 14.7728 288.29 13.6087C287.051 12.4262 286.434 11.0126 286.434 9.36816C286.434 7.74213 287.051 6.34708 288.29 5.18301C289.546 4.00045 291.051 3.40918 292.807 3.40918C294.563 3.40918 296.059 4.00045 297.298 5.18301C298.554 6.34708 299.183 7.74213 299.183 9.36816C299.183 11.0126 298.554 12.4262 297.298 13.6087C296.059 14.7728 294.563 15.3548 292.807 15.3548ZM308.363 6.65196H323.163L338.795 44.7893H339.461L355.093 6.65196H369.893V63.4147H358.254V26.4691H357.78L343.093 63.1376H335.166L320.476 26.3306H320.005V63.4147H308.363V6.65196ZM398.961 64.2462C394.58 64.2462 390.812 63.3593 387.654 61.5854C384.512 59.7932 382.09 57.2618 380.39 53.9913C378.69 50.7023 377.841 46.8128 377.841 42.3228C377.841 37.9435 378.69 34.1003 380.39 30.7928C382.09 27.4852 384.483 24.9076 387.568 23.0599C390.673 21.2122 394.315 20.2883 398.49 20.2883C401.298 20.2883 403.912 20.741 406.334 21.6464C408.773 22.5333 410.898 23.873 412.707 25.6652C414.537 27.4576 415.961 29.7118 416.976 32.4281C417.993 35.1257 418.5 38.2854 418.5 41.9069V45.1498H382.554V37.8328H407.385C407.385 36.1328 407.017 34.6269 406.278 33.315C405.539 32.003 404.512 30.9776 403.2 30.2384C401.907 29.4808 400.402 29.102 398.683 29.102C396.89 29.102 395.302 29.5179 393.917 30.3493C392.549 31.1623 391.478 32.2618 390.702 33.6476C389.924 35.015 389.527 36.5393 389.51 38.2208V45.1774C389.51 47.284 389.898 49.104 390.673 50.6376C391.468 52.1713 392.585 53.3537 394.027 54.1852C395.468 55.0167 397.178 55.4325 399.154 55.4325C400.466 55.4325 401.668 55.2476 402.759 54.8781C403.849 54.5086 404.78 53.9542 405.556 53.2152C406.334 52.4762 406.924 51.5706 407.332 50.4989L418.251 51.2196C417.698 53.8435 416.561 56.1347 414.841 58.0932C413.141 60.0332 410.944 61.5484 408.246 62.6386C405.566 63.7103 402.471 64.2462 398.961 64.2462ZM448.849 20.8426V29.7118H423.212V20.8426H448.849ZM429.032 10.6431H440.839V50.3328C440.839 51.4228 441.007 52.2728 441.339 52.8825C441.671 53.4737 442.134 53.8896 442.724 54.1298C443.334 54.3701 444.037 54.4901 444.832 54.4901C445.385 54.4901 445.939 54.444 446.493 54.3515C447.049 54.2406 447.473 54.1574 447.768 54.102L449.627 62.8881C449.034 63.0728 448.202 63.2854 447.132 63.5257C446.059 63.7842 444.756 63.9413 443.224 63.9967C440.378 64.1076 437.883 63.7289 435.739 62.8603C433.615 61.992 431.961 60.643 430.778 58.8137C429.595 56.9845 429.015 54.675 429.032 51.8847V10.6431ZM456.541 63.4147V20.8426H467.988V28.2706H468.432C469.207 25.6284 470.51 23.6327 472.339 22.2839C474.168 20.9166 476.276 20.2329 478.659 20.2329C479.249 20.2329 479.888 20.2699 480.571 20.3438C481.254 20.4177 481.856 20.5193 482.373 20.6486V31.1254C481.817 30.9591 481.051 30.8113 480.073 30.6818C479.093 30.5525 478.198 30.4879 477.383 30.4879C475.646 30.4879 474.095 30.8667 472.727 31.6242C471.378 32.3633 470.307 33.3981 469.512 34.7284C468.737 36.0589 468.349 37.5925 468.349 39.3293V63.4147H456.541ZM488.478 63.4147V20.8426H500.283V63.4147H488.478ZM494.407 15.3548C492.654 15.3548 491.146 14.7728 489.89 13.6087C488.654 12.4262 488.034 11.0126 488.034 9.36816C488.034 7.74213 488.654 6.34708 489.89 5.18301C491.146 4.00045 492.654 3.40918 494.407 3.40918C496.163 3.40918 497.661 4.00045 498.898 5.18301C500.154 6.34708 500.783 7.74213 500.783 9.36816C500.783 11.0126 500.154 12.4262 498.898 13.6087C497.661 14.7728 496.163 15.3548 494.407 15.3548ZM528.978 64.2462C524.617 64.2462 520.866 63.3223 517.724 61.4745C514.602 59.6084 512.2 57.0215 510.517 53.714C508.856 50.4067 508.024 46.6003 508.024 42.295C508.024 37.9342 508.863 34.1093 510.546 30.8206C512.246 27.513 514.656 24.9354 517.78 23.0877C520.902 21.2214 524.617 20.2883 528.922 20.2883C532.637 20.2883 535.888 20.9628 538.678 22.3116C541.468 23.6605 543.676 25.5545 545.302 27.9935C546.929 30.4325 547.824 33.2964 547.99 36.5854H536.849C536.534 34.4606 535.702 32.7513 534.354 31.4579C533.024 30.1459 531.278 29.4901 529.117 29.4901C527.288 29.4901 525.688 29.9891 524.322 30.9867C522.973 31.9662 521.919 33.3981 521.161 35.2828C520.405 37.1674 520.024 39.4493 520.024 42.1286C520.024 44.845 520.395 47.1545 521.134 49.0576C521.89 50.9608 522.954 52.4113 524.322 53.4091C525.688 54.4069 527.288 54.9059 529.117 54.9059C530.466 54.9059 531.676 54.6286 532.746 54.0745C533.837 53.5201 534.734 52.7162 535.434 51.663C536.156 50.5913 536.627 49.3072 536.849 47.8106H547.99C547.805 51.0625 546.92 53.9264 545.329 56.4025C543.759 58.8601 541.588 60.7818 538.817 62.1674C536.044 63.5532 532.766 64.2462 528.978 64.2462ZM590.971 32.9823L580.161 33.6476C579.978 32.7237 579.58 31.8923 578.971 31.153C578.361 30.3954 577.556 29.795 576.559 29.3515C575.58 28.8896 574.407 28.6586 573.039 28.6586C571.21 28.6586 569.666 29.0467 568.41 29.8228C567.154 30.5803 566.527 31.5964 566.527 32.8715C566.527 33.8876 566.932 34.7469 567.746 35.4491C568.559 36.1513 569.954 36.7147 571.929 37.1398L579.637 38.6918C583.776 39.5418 586.861 40.9091 588.893 42.794C590.924 44.6786 591.941 47.1545 591.941 50.2218C591.941 53.0118 591.119 55.4601 589.476 57.5667C587.849 59.673 585.612 61.3176 582.768 62.5001C579.941 63.6642 576.678 64.2462 572.983 64.2462C567.349 64.2462 562.859 63.0728 559.515 60.7262C556.188 58.3611 554.239 55.1459 553.666 51.0811L565.278 50.4713C565.629 52.1896 566.48 53.5015 567.829 54.4069C569.178 55.294 570.905 55.7374 573.012 55.7374C575.08 55.7374 576.744 55.3401 578 54.5454C579.276 53.7325 579.922 52.6886 579.941 51.4135C579.922 50.342 579.468 49.4642 578.583 48.7806C577.695 48.0784 576.329 47.5425 574.48 47.173L567.107 45.704C562.951 44.8725 559.856 43.4313 557.822 41.3803C555.81 39.3293 554.802 36.7147 554.802 33.5367C554.802 30.802 555.541 28.4462 557.02 26.4691C558.515 24.492 560.612 22.9676 563.31 21.8959C566.027 20.8242 569.205 20.2883 572.844 20.2883C578.222 20.2883 582.454 21.4247 585.539 23.6974C588.644 25.9701 590.454 29.0652 590.971 32.9823Z" fill="black"/>
<path d="M0 32.9473C0 14.7511 14.7511 0 32.9473 0V44.0229C32.9473 62.2193 18.1963 76.9705 0 76.9705V32.9473Z" fill="black"/>
<path d="M37.7268 18.0704C37.7268 8.18268 45.7424 0 55.63 0C65.5178 0 73.5334 8.18268 73.5334 18.0704C73.5334 27.9583 65.5178 36.141 55.63 36.141C45.7424 36.141 37.7268 27.9583 37.7268 18.0704Z" fill="black"/>
<path d="M37.7268 58.9001C37.7268 49.0123 45.7424 40.8296 55.63 40.8296C65.5178 40.8296 73.5334 49.0123 73.5334 58.9001C73.5334 68.7879 65.5178 76.9706 55.63 76.9706C45.7424 76.9706 37.7268 68.7879 37.7268 58.9001Z" fill="black"/>
</svg>
