<svg xmlns="http://www.w3.org/2000/svg" xmlns:xlink="http://www.w3.org/1999/xlink" width="1080" zoomAndPan="magnify" viewBox="0 0 810 809.999993" height="1080" preserveAspectRatio="xMidYMid meet" version="1.0"><defs><clipPath id="bc40c501b0"><path d="M 92.855469 78.765625 L 373 78.765625 L 373 731.265625 L 92.855469 731.265625 Z M 92.855469 78.765625 " clip-rule="nonzero"/></clipPath><clipPath id="83f5bf4bb7"><path d="M 412 78.765625 L 716.855469 78.765625 L 716.855469 386 L 412 386 Z M 412 78.765625 " clip-rule="nonzero"/></clipPath><clipPath id="cef2246342"><path d="M 412 424 L 716.855469 424 L 716.855469 731.265625 L 412 731.265625 Z M 412 424 " clip-rule="nonzero"/></clipPath></defs><rect x="-81" width="972" fill="#ffffff" y="-80.999999" height="971.999992" fill-opacity="1"/><rect x="-81" width="972" fill="#ffffff" y="-80.999999" height="971.999992" fill-opacity="1"/><g clip-path="url(#bc40c501b0)"><path fill="#191233" d="M 92.890625 358.015625 C 92.890625 203.789062 217.917969 78.765625 372.144531 78.765625 L 372.144531 451.890625 C 372.144531 606.117188 247.117188 731.144531 92.890625 731.144531 Z M 92.890625 358.015625 " fill-opacity="1" fill-rule="nonzero"/></g><g clip-path="url(#83f5bf4bb7)"><path fill="#191233" d="M 412.652344 231.921875 C 412.652344 148.117188 480.589844 78.765625 564.398438 78.765625 C 648.203125 78.765625 716.140625 148.117188 716.140625 231.921875 C 716.140625 315.730469 648.203125 385.082031 564.398438 385.082031 C 480.589844 385.082031 412.652344 315.730469 412.652344 231.921875 Z M 412.652344 231.921875 " fill-opacity="1" fill-rule="nonzero"/></g><g clip-path="url(#cef2246342)"><path fill="#191233" d="M 412.652344 577.984375 C 412.652344 494.175781 480.589844 424.824219 564.398438 424.824219 C 648.203125 424.824219 716.140625 494.175781 716.140625 577.984375 C 716.140625 661.789062 648.203125 731.144531 564.398438 731.144531 C 480.589844 731.144531 412.652344 661.789062 412.652344 577.984375 Z M 412.652344 577.984375 " fill-opacity="1" fill-rule="nonzero"/></g></svg>