<svg width="30" height="31" viewBox="0 0 30 31" fill="none" xmlns="http://www.w3.org/2000/svg">
<path d="M14.0344 26.0398C13.9837 26.2426 13.8666 26.4227 13.7019 26.5514C13.5371 26.68 13.334 26.7499 13.125 26.75C13.046 26.7504 12.9673 26.7409 12.8906 26.7219L9.14061 25.7844C9.03621 25.7581 8.93711 25.7141 8.84764 25.6543L6.03514 23.7793C5.8283 23.6413 5.68476 23.4268 5.63608 23.1829C5.5874 22.9391 5.63758 22.6859 5.77557 22.4791C5.91357 22.2722 6.12808 22.1287 6.37191 22.08C6.61574 22.0313 6.86893 22.0815 7.07577 22.2195L9.75233 24.0043L13.3453 24.9031C13.4653 24.9322 13.5785 24.9847 13.6781 25.0577C13.7778 25.1307 13.8621 25.2226 13.9261 25.3282C13.9901 25.4339 14.0327 25.5511 14.0513 25.6732C14.0698 25.7953 14.0641 25.9199 14.0344 26.0398ZM29.584 14.7359C29.507 14.9696 29.3846 15.1857 29.2237 15.3717C29.0628 15.5578 28.8666 15.7101 28.6465 15.8199L25.8715 17.2074L24.1043 18.9758L19.4168 23.6633C19.3022 23.7777 19.16 23.8605 19.0039 23.9036C18.8478 23.9468 18.6832 23.9487 18.5262 23.9094L11.0262 22.0344C10.9121 22.0057 10.8044 21.956 10.7086 21.8879L4.20233 17.2426L1.35702 15.8199C0.912332 15.5976 0.574136 15.2078 0.41679 14.7362C0.259445 14.2646 0.295834 13.7498 0.517954 13.3051L3.43006 7.48201C3.65236 7.03732 4.04216 6.69913 4.51376 6.54178C4.98535 6.38444 5.50013 6.42082 5.94491 6.64295L8.53006 7.93201L14.741 6.15779C14.9095 6.10959 15.0881 6.10959 15.2566 6.15779L21.4676 7.93201L24.0527 6.64295C24.4975 6.42082 25.0123 6.38444 25.4839 6.54178C25.9555 6.69913 26.3453 7.03732 26.5676 7.48201L29.4797 13.3051C29.5907 13.5248 29.6572 13.7644 29.6751 14.01C29.693 14.2556 29.662 14.5024 29.584 14.7359ZM22.0312 18.3898L18.784 15.7894C16.4941 17.6644 13.5867 17.9117 11.1773 16.3754C10.9403 16.2246 10.7402 16.0225 10.5918 15.784C10.4434 15.5456 10.3504 15.2768 10.3198 14.9976C10.2892 14.7184 10.3218 14.4358 10.415 14.1709C10.5083 13.9059 10.6599 13.6653 10.8586 13.4668C10.8614 13.4634 10.8645 13.4602 10.868 13.4574L16.125 8.35857L15 8.03748L9.09139 9.72615L5.88397 16.1398L11.6496 20.259L18.4629 21.9617L22.0312 18.3898ZM24.1687 16.2523L20.9836 9.87498H17.2547L12.1875 14.7969C13.6711 15.7449 15.9973 16.0062 18.0844 13.9027C18.2474 13.7384 18.4654 13.6402 18.6964 13.627C18.9275 13.6138 19.1553 13.6866 19.3359 13.8312L23.3683 17.0621L24.1687 16.2523Z" fill="#255CFF"/>
</svg>
