<svg width="22" height="27" viewBox="0 0 22 27" fill="none" xmlns="http://www.w3.org/2000/svg">
<path d="M21.7075 7.57298L14.7075 0.30375C14.6146 0.207345 14.5042 0.1309 14.3829 0.0787817C14.2615 0.0266633 14.1314 -0.000106947 14 3.21091e-07H2C1.46957 3.21091e-07 0.960859 0.218818 0.585786 0.608317C0.210714 0.997816 0 1.52609 0 2.07692V24.9231C0 25.4739 0.210714 26.0022 0.585786 26.3917C0.960859 26.7812 1.46957 27 2 27H20C20.5304 27 21.0391 26.7812 21.4142 26.3917C21.7893 26.0022 22 25.4739 22 24.9231V8.30769C22.0001 8.17128 21.9743 8.03618 21.9241 7.91012C21.8739 7.78405 21.8003 7.66949 21.7075 7.57298ZM15 19.7308H7C6.73478 19.7308 6.48043 19.6214 6.29289 19.4266C6.10536 19.2319 6 18.9677 6 18.6923C6 18.4169 6.10536 18.1528 6.29289 17.958C6.48043 17.7633 6.73478 17.6538 7 17.6538H15C15.2652 17.6538 15.5196 17.7633 15.7071 17.958C15.8946 18.1528 16 18.4169 16 18.6923C16 18.9677 15.8946 19.2319 15.7071 19.4266C15.5196 19.6214 15.2652 19.7308 15 19.7308ZM15 15.5769H7C6.73478 15.5769 6.48043 15.4675 6.29289 15.2728C6.10536 15.078 6 14.8139 6 14.5385C6 14.263 6.10536 13.9989 6.29289 13.8042C6.48043 13.6094 6.73478 13.5 7 13.5H15C15.2652 13.5 15.5196 13.6094 15.7071 13.8042C15.8946 13.9989 16 14.263 16 14.5385C16 14.8139 15.8946 15.078 15.7071 15.2728C15.5196 15.4675 15.2652 15.5769 15 15.5769ZM14 8.30769V2.59615L19.5 8.30769H14Z" fill="#1E78FF"/>
</svg>
