<svg width="428" height="512" viewBox="0 0 428 512" fill="none" xmlns="http://www.w3.org/2000/svg">
<path d="M210.351 246.632C244.233 246.632 273.573 234.479 297.546 210.502C321.519 186.53 333.671 157.198 333.671 123.313C333.671 89.4367 321.519 60.1018 297.542 36.1209C273.565 12.152 244.229 0 210.351 0C176.464 0 147.132 12.152 123.16 36.1249C99.1877 60.0978 87.0307 89.4337 87.0307 123.313C87.0307 157.198 99.1867 186.534 123.164 210.507C147.141 234.476 176.476 246.632 210.351 246.632ZM426.127 393.701C425.435 383.725 424.037 372.842 421.978 361.351C419.9 349.772 417.225 338.827 414.021 328.823C410.713 318.483 406.214 308.273 400.652 298.487C394.878 288.331 388.097 279.487 380.487 272.21C372.53 264.597 362.788 258.476 351.522 254.01C340.296 249.57 327.854 247.32 314.546 247.32C309.319 247.32 304.265 249.464 294.503 255.82C287.564 260.339 280.604 264.825 273.624 269.28C266.917 273.554 257.831 277.558 246.608 281.183C235.659 284.726 224.542 286.523 213.569 286.523C202.597 286.523 191.483 284.726 180.522 281.183C169.312 277.561 160.226 273.558 153.526 269.284C145.757 264.319 138.727 259.788 132.629 255.815C122.879 249.46 117.82 247.315 112.594 247.315C99.2807 247.315 86.8438 249.569 75.6208 254.015C64.3628 258.472 54.6169 264.593 46.6519 272.214C39.0469 279.495 32.262 288.334 26.496 298.487C20.938 308.272 16.438 318.479 13.125 328.827C9.92505 338.831 7.25006 349.772 5.17207 361.351C3.11308 372.827 1.71509 383.713 1.02309 393.713C0.334713 403.777 -0.00648812 413.861 9.34136e-05 423.947C9.34136e-05 450.674 8.49606 472.31 25.25 488.267C41.7969 504.014 63.6908 512.002 90.3157 512.002H336.847C363.472 512.002 385.358 504.018 401.909 488.268C418.666 472.322 427.162 450.682 427.162 423.943C427.158 413.627 426.811 403.451 426.127 393.701Z" fill="#1E78FF"/>
</svg>
